# xmcd
#
# Track frame offsets: 
#        150
#        14738
#        33023
#        52877
#        71977
#
# Disc length: 1264 seconds
#
# Revision: 0
# Processed by: cddbd v1.5.2PL0 Copyright (c) Steve Scherf et al.
# Submitted via: ExactAudioCopy v0.99pb4
#
DISCID=3d04ee05
DTITLE=Varpen - Varpen
DYEAR=2004
DGENRE=
TTITLE0=Booty Ville
TTITLE1=Everyday Life
TTITLE2=I just want to make love to U
TTITLE3=DD
TTITLE4=Stranded
EXTD=
EXTT0=
EXTT1=
EXTT2=
EXTT3=
EXTT4=
PLAYORDER=
